<?xml version="1.0"?>
<svg version="1.0" xmlns="http://www.w3.org/2000/svg" width="256" height="256" viewBox="0 0 256 256">
    <g transform="translate(0.000000,256.000000) scale(0.100000,-0.100000)" fill="#fff" stroke="none">
        <path d="M2085 2361 c-16 -10 -46 -35 -65 -55 l-34 -37 142 -141 142 -142 41 39 c51 49 73 96 64 137 -9 38 -147 186 -192 204 -43 19 -62 18 -98 -5z"/>
        <path d="M460 2227 c-19 -6 -58 -34 -86 -62 -50 -49 -52 -54 -132 -288 l-82 -239 0 -555 c0 -407 3 -567 12 -597 16 -55 99 -138 154 -154 59 -17 1849 -17 1908 0 55 16 138 99 154 154 9 30 12 180 12 553 l0 511 -80 0 -80 0 0 -510 0 -511 -25 -24 -24 -25 -911 0 -911 0 -24 25 -25 24 0 543 0 543 75 215 c49 140 82 221 96 233 19 15 53 17 388 17 309 0 370 -2 388 -15 14 -10 34 -53 58 -125 l37 -110 64 56 c35 31 64 57 64 59 0 1 -9 28 -20 60 -11 32 -20 62 -20 67 0 4 52 8 116 8 l116 0 47 34 c25 19 66 55 91 80 l44 46 -684 -1 c-473 -1 -696 -4 -720 -12z"/>
        <path d="M1552 1837 l-392 -392 143 -143 142 -142 395 395 395 395 -103 102 -102 103 -375 -375 c-373 -373 -374 -374 -395 -355 l-21 19 376 376 c361 361 375 377 357 393 -10 9 -20 17 -23 17 -2 0 -181 -177 -397 -393z"/>
        <path d="M640 1840 l0 -80 240 0 240 0 0 80 0 80 -240 0 -240 0 0 -80z"/>
        <path d="M1126 1389 c-8 -24 -47 -302 -43 -305 5 -6 301 38 309 45 4 4 -53 67 -127 141 -89 89 -136 129 -139 119z"/>
    </g>
</svg>