<?xml version="1.0" encoding="utf-8"?>
<svg xmlns="http://www.w3.org/2000/svg" xmlns:xlink="http://www.w3.org/1999/xlink" x="0px" y="0px" viewBox="0 0 1000 1000" xml:space="preserve">
	<g fill="#fff">
		<path d="M980.9,521.5c-12,12.2-31.6,12.2-43.7,0L500,81.3L62.7,521.5c-12,12.2-31.6,12.2-43.7,0s-12-31.8,0-44L463.9,30.9c6.2-6.2,27.9-24,36.1-23.9c8.1-0.1,16.3,2.7,22.5,9l458.4,461.5C993,489.7,993,509.4,980.9,521.5z M824.6,79h96.2v216.5l-96.2-96.2V79z M475.2,205.4c1-1.5,1.6-3.1,2.9-4.4c6-6,13.9-8.8,21.8-8.7c7.9-0.2,15.8,2.6,21.9,8.7c1.3,1.3,1.9,2.9,2.9,4.4l306.2,332.5c7.2,5.7,17.8,12.2,17.8,22.1l0,0c0,0.1,0-0.1,0,0v408.9c0,17-19.4,24.1-36.3,24.1H653c-16.9,0-20.7-7.1-20.7-24.1V680.3H367.7v288.6c0,17-3.8,24.1-20.7,24.1H163.5c-16.9,0-12.2-7.1-12.2-24.1V560c0-0.1,0,0.1,0,0V536c0-9.9,10.6-16.5,17.8-22.1L475.2,205.4z M199.4,944.8h120.3V661c0-15.9,13.4-28.9,30-28.9h300.6c16.6,0,30,12.9,30,28.9v283.8h120.3V584.1L500,265.6L199.4,560V944.8z"/>
	</g>
</svg>