<?xml version="1.0" encoding="utf-8"?>
<svg version="1.1" xmlns="http://www.w3.org/2000/svg" xmlns:xlink="http://www.w3.org/1999/xlink" x="0px" y="0px" viewBox="0 0 1000 1000" enable-background="new 0 0 1000 1000" xml:space="preserve">
	<g fill="#fff">
		<path d="M827.7,10H172.3C82.8,10,10,82.8,10,172.3v655.4C10,917.2,82.8,990,172.3,990h655.4c89.5,0,162.3-72.8,162.3-162.3V172.3C990,82.8,917.2,10,827.7,10z M172.3,75.3h655.4c53.5,0,97,43.5,97,97v96.9H75.3v-96.9C75.3,118.8,118.8,75.3,172.3,75.3z M75.3,827.7V334.4h261.3v590.1H172.3C118.8,924.7,75.3,881.2,75.3,827.7z M827.7,924.7H402V334.4h522.7v493.2C924.7,881.2,881.2,924.7,827.7,924.7z"/>
	</g>
</svg>